<svg width="399" height="55" viewBox="0 0 399 55" fill="none" xmlns="http://www.w3.org/2000/svg">
<path d="M59.8666 24.1933C57.6124 25.746 56.4859 27.9057 56.7935 30.0848L56.7406 30.0486C57.0568 32.6129 55.7058 35.1423 53.0479 36.962C50.3899 38.7817 46.6955 39.7067 42.95 39.4902L43.0029 39.5264C38.4679 39.2375 34.1552 40.9263 32.2198 43.7491C30.2845 46.5718 31.1421 49.9223 34.3641 52.1263C37.5861 54.3302 42.4807 54.9144 46.6019 53.5868C50.7231 52.2592 53.1859 49.305 52.7597 46.2004L52.8156 46.2366C52.4994 43.6723 53.8504 41.1429 56.5083 39.3232C59.1662 37.5034 62.8607 36.5785 66.6062 36.7949L66.5504 36.7587C71.5345 37.0656 76.1722 34.9849 77.7508 31.7338C79.3295 28.4827 77.4343 24.9151 73.1739 23.1179C68.9135 21.3207 63.407 21.766 59.8754 24.1933H59.8666Z" fill="#5454D4"/>
<path d="M38.1936 34.7834L38.1377 34.7472C41.3226 34.9669 44.4832 34.1958 46.7475 32.6468C49.0118 31.0977 50.1404 28.9344 49.8219 26.7537L49.8777 26.7899C49.5615 24.2256 50.9126 21.6962 53.5705 19.8765C56.2284 18.0568 59.9228 17.1318 63.6683 17.3482L63.6125 17.312C68.1479 17.6036 72.4632 15.9166 74.4015 13.0943C76.3398 10.2719 75.4847 6.92045 72.2636 4.71515C69.0425 2.50985 64.1473 1.92439 60.025 3.25144C55.9026 4.57848 53.4386 7.53297 53.8645 10.6381L53.8116 10.5999C54.1288 13.1644 52.7781 15.6942 50.1199 17.5141C47.4618 19.334 43.7667 20.2587 40.0209 20.0416L40.0738 20.0798C36.889 19.8601 33.7284 20.6311 31.4641 22.1802C29.1998 23.7292 28.0712 25.8926 28.3897 28.0732L28.3368 28.037C28.6519 30.6012 27.3005 33.1301 24.6429 34.9497C21.9852 36.7692 18.2914 37.6944 14.5462 37.4787L14.599 37.5149C10.0637 37.2233 5.74832 38.9103 3.81003 41.7327C1.87173 44.555 2.72685 47.9065 5.94794 50.1118C9.16903 52.3171 14.0642 52.9025 18.1866 51.5755C22.3089 50.2485 24.773 47.294 24.3471 44.1889L24.4029 44.2251C24.0867 41.6607 25.4378 39.1313 28.0957 37.3116C30.7536 35.4919 34.448 34.5669 38.1936 34.7834V34.7834Z" fill="#FF7143"/>
<path d="M18.5035 30.7466C20.7581 29.1941 21.8837 27.034 21.5737 24.8551L21.6295 24.8913C21.3131 22.3262 22.6649 19.7961 25.3241 17.9762C27.9834 16.1563 31.6795 15.2319 35.426 15.4496L35.3702 15.4134C39.9039 15.7042 44.2172 14.0173 46.1544 11.1959C48.0915 8.37441 47.2364 5.02427 44.0165 2.81979C40.7966 0.615297 35.9034 0.0298819 31.7823 1.35612C27.6612 2.68235 25.1974 5.63542 25.6221 8.73945L25.5692 8.70324C25.8854 11.2676 24.5344 13.797 21.8765 15.6167C19.2186 17.4364 15.5241 18.3614 11.7786 18.1449L11.8315 18.1811C6.84759 17.8751 2.21084 19.9563 0.63313 23.2075C-0.944582 26.4586 0.951165 30.0257 5.21161 31.8225C9.47205 33.6193 14.9781 33.1738 18.5094 30.7466H18.5035Z" fill="#5454D4"/>
<path d="M109.512 10.6846H118.237V39.7559H109.512V10.6846Z" fill="#19191B"/>
<path fill-rule="evenodd" clip-rule="evenodd" d="M132.652 20.0204C126.894 21.6673 123.154 25.5286 123.179 29.8011C123.149 32.6027 124.765 35.2949 127.664 37.2719C130.564 39.249 134.503 40.3449 138.594 40.3129C144.835 40.3129 150.46 37.7369 152.842 33.7879C155.224 29.839 153.894 25.2962 149.473 22.2811C145.051 19.2661 138.411 18.3736 132.652 20.0204ZM138.47 25.3465C142.142 25.3001 145.182 27.2878 145.284 29.801C145.383 31.0469 144.717 32.2644 143.446 33.1588C142.175 34.0533 140.416 34.5431 138.594 34.5098C134.922 34.5099 131.936 32.4842 131.902 29.9702C131.868 27.4561 134.799 25.3929 138.47 25.3465Z" fill="#19191B"/>
<path fill-rule="evenodd" clip-rule="evenodd" d="M188.786 38.752V19.8445L180.292 19.8405V21.872C178.22 20.1363 175.069 19.1758 171.799 19.2833C163.821 19.4555 157.484 23.9331 157.484 29.3978C157.484 34.8625 163.821 39.3401 171.799 39.5123C175.069 39.6198 178.22 38.6593 180.292 36.9236V38.7439C180.438 39.945 179.779 41.1264 178.501 41.955C177.223 42.7836 175.464 43.1696 173.72 43.0042C170.962 43.1969 168.319 42.1971 167.089 40.4959L159.645 43.4427C162.557 46.6917 167.877 48.5546 173.429 48.2701C181.165 48.2701 188.786 45.442 188.786 38.752ZM176.149 24.799C178.774 25.6094 180.415 27.4311 180.295 29.4008C180.35 30.6726 179.616 31.9008 178.275 32.7821C176.935 33.6635 175.113 34.1157 173.259 34.0271C170.38 34.0295 167.787 32.8329 166.711 31.0045C165.634 29.1761 166.29 27.0832 168.366 25.7178C170.443 24.3523 173.524 23.9885 176.149 24.799Z" fill="#19191B"/>
<path fill-rule="evenodd" clip-rule="evenodd" d="M203.201 20.0204C197.442 21.6673 193.702 25.5286 193.727 29.8011C193.697 32.6027 195.314 35.2949 198.213 37.2719C201.112 39.249 205.051 40.3449 209.143 40.3129C215.383 40.3129 221.008 37.7369 223.39 33.7879C225.773 29.839 224.443 25.2962 220.021 22.2811C215.6 19.2661 208.959 18.3736 203.201 20.0204ZM209.019 25.3465C212.69 25.3001 215.731 27.2878 215.832 29.801C215.932 31.0469 215.265 32.2644 213.994 33.1588C212.724 34.0533 210.965 34.5431 209.143 34.5098C205.471 34.5099 202.484 32.4842 202.45 29.9702C202.416 27.4561 205.347 25.3929 209.019 25.3465Z" fill="#19191B"/>
<path fill-rule="evenodd" clip-rule="evenodd" d="M231.859 11.1968C229.903 11.7516 228.627 13.0586 228.627 14.5083C228.656 16.4797 230.983 18.0731 233.863 18.0927C235.98 18.0927 237.889 17.2194 238.699 15.88C239.51 14.5406 239.062 12.9989 237.565 11.9738C236.067 10.9486 233.815 10.642 231.859 11.1968ZM238.237 19.8447H229.509L229.497 39.7579H238.237V19.8447Z" fill="#19191B"/>
<path fill-rule="evenodd" clip-rule="evenodd" d="M272.155 37.0364C274.764 35.0633 276.117 32.4593 275.913 29.8013C276.119 27.1427 274.766 24.5379 272.157 22.5643C269.547 20.5907 265.895 19.4113 262.011 19.2875C258.737 19.1652 255.556 20.0566 253.347 21.7153V19.8446H244.621V47.7212H253.347V37.8832C255.555 39.5432 258.736 40.4354 262.011 40.313C265.894 40.1887 269.545 39.0094 272.155 37.0364ZM260.152 25.1816C263.952 25.1381 267.092 27.2002 267.187 29.8012C267.319 31.0938 266.639 32.3635 265.318 33.2912C263.996 34.2189 262.159 34.7164 260.269 34.6588C256.468 34.6591 253.378 32.5616 253.346 29.9598C253.314 27.358 256.352 25.2251 260.152 25.1816Z" fill="#19191B"/>
<path d="M302.839 33.7818C302.839 38.3618 297.025 40.3129 290.744 40.3129C285.551 40.6349 280.596 38.7574 278.237 35.5739L285.796 32.6272C286.426 34.1092 288.483 35.0883 290.732 34.9765C292.824 34.9765 293.873 34.5381 293.873 33.7435C293.873 31.5511 279.562 32.7076 279.562 25.8185C279.562 21.4758 284.915 19.2873 290.964 19.2873C295.596 19.187 299.94 20.8191 302.305 23.5476L294.86 26.2952C294.192 25.2289 292.659 24.5391 290.964 24.5432C289.451 24.5432 288.52 24.9455 288.52 25.6576C288.532 27.9285 302.839 26.4139 302.839 33.7818Z" fill="#19191B"/>
<path d="M334.713 19.8447V39.758H325.987V37.8853C323.946 39.5615 320.853 40.4652 317.673 40.3151C311.797 40.3151 306.803 37.4488 306.803 32.0682V19.8447H315.528V31.1933C315.381 32.1532 315.857 33.109 316.832 33.8065C317.807 34.5039 319.18 34.8724 320.587 34.8138C323.787 34.8138 325.996 33.5406 325.996 30.7125V19.8508L334.713 19.8447Z" fill="#19191B"/>
<path d="M384.746 27.5301V39.7556H376.02V28.047C376.02 26.0557 374.625 24.7825 371.834 24.7825C368.925 24.7825 367.295 26.1764 367.295 28.5258V39.7556H358.572V28.047C358.572 26.0557 357.176 24.7825 354.382 24.7825C351.474 24.7825 349.846 26.1764 349.846 28.5258V39.7556H341.121V19.8424H349.846V21.6728C351.684 20.0228 354.619 19.1238 357.641 19.2852C360.678 19.1835 363.57 20.1808 365.259 21.9122C367.224 20.1022 370.409 19.1102 373.693 19.2852C380.371 19.2872 384.746 22.5518 384.746 27.5301Z" fill="#19191B"/>
<path d="M392.126 19.7219C395.702 19.7219 398.601 17.7371 398.601 15.2887C398.601 12.8403 395.702 10.8555 392.126 10.8555C388.55 10.8555 385.651 12.8403 385.651 15.2887C385.651 17.7371 388.55 19.7219 392.126 19.7219Z" fill="#19191B"/>
</svg>
